<svg 
xmlns="http://www.w3.org/2000/svg" 
width="1520" 
height="470" 
fill="none">
<g 
fill="#000" 
clip-path="url(#a)">
<path 
d="M1327.43 229.28c-.41 0-.77.28-.88.67-7.43 26.15-13.25 46.38-17.44 60.7-.73 2.48-3 4.17-5.58 4.17h-28.83c-2.56 0-4.82-1.67-5.56-4.12l-32.33-105.88c-1.14-3.74 1.66-7.52 5.57-7.52h22.45c2.61 0 4.9 1.74 5.61 4.26l18.87 67.75c.11.39.47.67.88.67.41 0 .77-.27.88-.67 3.9-13.77 6.9-24.13 9.01-31.07l10.52-36.72c.72-2.5 3-4.22 5.59-4.22h24.79c2.61 0 4.89 1.73 5.6 4.24l19.09 67.77c.11.39.47.67.88.67.41 0 .77-.27.88-.67 8.33-29.16 14.7-51.74 19.1-67.73.7-2.53 2.99-4.28 5.61-4.28h20.36c3.91 0 6.71 3.78 5.57 7.52l-32.32 105.88a5.824 5.824 0 0 1-5.57 4.12h-28.37a5.82 5.82 0 0 1-5.58-4.17l-17.89-60.71a.912.912 0 0 0-.88-.66h-.03Zm-92.88 10.12c0 11.81-2.53 22.08-7.59 30.82-4.91 8.74-11.73 15.41-20.47 20.01-8.74 4.6-18.55 6.9-29.44 6.9h-3.68c-10.89 0-20.7-2.3-29.44-6.9-8.74-4.6-15.64-11.27-20.7-20.01-4.91-8.74-7.36-19.01-7.36-30.82v-6.67c0-11.81 2.45-22.08 7.36-30.82 5.06-8.74 11.96-15.41 20.7-20.01 8.74-4.6 18.55-6.9 29.44-6.9h3.68c10.88 0 20.7 2.3 29.44 6.9 8.74 4.6 15.56 11.27 20.47 20.01 5.06 8.74 7.59 19.01 7.59 30.82v6.67Zm-34.04-12.65c0-9.35-2.38-16.48-7.13-21.39-4.6-4.91-10.65-7.36-18.17-7.36-7.52 0-13.65 2.45-18.4 7.36-4.6 4.91-6.9 12.04-6.9 21.39v18.63c0 9.35 2.3 16.48 6.9 21.39 4.75 4.91 10.89 7.36 18.4 7.36 7.51 0 13.57-2.45 18.17-7.36 4.75-4.91 7.13-12.04 7.13-21.39v-18.63Zm-149.67-95.86c-2.46-.8-5.35-1.51-8.68-2.11-5.06-.92-9.51-1.38-13.34-1.38-23.61 0-35.42 11.5-35.42 34.5v15.41h-7.79a5.82 5.82 0 0 0-5.82 5.82v10.89c0 3.21 2.6 5.82 5.82 5.82h7.79v89.17c0 3.21 2.61 5.82 5.82 5.82h21.94c3.21 0 5.82-2.61 5.82-5.82v-82.89c0-3.21 2.6-5.82 5.82-5.82h15.73c3.21 0 5.82-2.6 5.82-5.82v-11.36c0-3.21-2.61-5.82-5.82-5.82h-15.73c-3.21 0-5.82-2.61-5.82-5.82v-7.52c0-5.52 1.23-9.2 3.68-11.04 2.61-1.84 5.75-2.76 9.43-2.76 1.69 0 3.99.31 6.9.92 3.7.58 7.36-2.18 7.36-5.93v-9.17c0-2.29-1.34-4.39-3.51-5.1v.01Zm45.23-1.65h-21.94a5.823 5.823 0 0 0-5.82 5.82v153.95c0 3.214 2.61 5.82 5.82 5.82h21.94c3.21 0 5.82-2.606 5.82-5.82V135.06c0-3.214-2.61-5.82-5.82-5.82Zm-340.15 52.68c1.05 4.9 7.62 6.44 11.47 3.23 8.1-6.76 17.67-10.14 28.72-10.14 11.96 0 21.77 3.22 29.44 9.66 7.82 6.44 11.73 15.79 11.73 28.06v76.28c0 3.21-2.6 5.82-5.82 5.82h-21.94c-3.21 0-5.82-2.61-5.82-5.82v-68.93c0-5.98-1.76-10.89-5.29-14.72-3.37-3.99-7.74-5.98-13.11-5.98-5.98 0-11.11 2.3-15.41 6.9-4.29 4.45-6.44 9.89-6.44 16.33v66.4c0 3.21-2.61 5.82-5.82 5.82h-21.94c-3.21 0-5.82-2.61-5.82-5.82V183.13c0-3.21 2.61-5.82 5.82-5.82h14.54a5.83 5.83 0 0 1 5.69 4.61Z"/>
<path 
fill-rule="evenodd" 
d="M676.88 202.83c3.37 3.22 5.06 7.44 5.06 12.65v2.29l-.02.24c-.11 1.28-.22 2.52-.22 3.57 0 .95-.77 1.72-1.72 1.73-16.59.07-30.19 1.07-40.81 2.99-11.04 1.99-19.7 5.9-25.99 11.73-6.13 5.67-9.2 13.95-9.2 24.84 0 13.34 3.76 22.38 11.27 27.14 7.51 4.75 17.1 7.13 28.75 7.13 11.65 0 21-3.33 29.64-10 3.06-2.36 8.06-.37 8.06 3.5 0 2.32 1.88 4.2 4.21 4.2h23.55c3.21 0 5.82-2.61 5.82-5.82v-76.28c0-12.27-3.91-21.62-11.73-28.06-6.11-5.13-12.76-7.15-21.54-8.11-5.3-1.03-11.23-1.55-17.78-1.55h-4.83c-10.12 0-19.09 1.46-26.91 4.37s-13.95 6.98-18.4 12.19c-4.29 5.21-6.44 11.12-6.44 17.71 0 2.41 2.22 4.14 4.63 4.14h26.42c1.02 0 1.84-.82 1.84-1.84 0-1.84.77-3.83 2.3-5.98 1.69-2.15 4.06-3.91 7.13-5.29 3.07-1.53 6.75-2.3 11.04-2.3 7.36 0 12.65 1.61 15.87 4.83v-.02Zm-1.01 39.42c3.21-.1 5.83 2.52 5.83 5.73v3.45c0 .28-.02.55-.06.82-.55 3.39-1.82 6.54-3.84 9.45-2.61 3.99-5.9 7.05-9.89 9.2-3.99 2.15-7.97 3.22-11.96 3.22-5.83 0-10.2-1-13.11-2.99-2.76-2.15-4.14-5.75-4.14-10.81 0-6.44 3.53-11.04 10.58-13.8 6.17-2.49 15.03-3.92 26.59-4.28v.01Z" 
clip-rule="evenodd"/>
<path 
d="M510.44 294.82c-3.21 0-5.82-2.61-5.82-5.82V142.87c0-3.21 2.61-5.82 5.82-5.82h24.01c3.21 0 5.82 2.61 5.82 5.82v116.69c0 3.21 2.61 5.82 5.82 5.82h40.35a5.82 5.82 0 0 1 5.67 4.52l4.06 17.8c.83 3.64-1.94 7.11-5.67 7.11h-80.06v.01Zm453.16-17.48c-5.67-6.13-13.88-9.2-24.61-9.2h-40.94c-4.91 0-8.59-.84-11.04-2.53-2.3-1.69-3.45-4.06-3.45-7.13 0-2.45 1.23-4.68 3.68-6.67 2.61-1.99 6.21-2.99 10.81-2.99h15.87c9.05 0 17.02-1.61 23.92-4.83 7.05-3.37 12.49-7.82 16.33-13.34 3.83-5.67 5.75-11.88 5.75-18.63 0-4.15-.76-8.05-2.26-11.69h6.86c3.21 0 5.82-2.61 5.82-5.82v-10.89c0-3.21-2.6-5.82-5.82-5.82h-35.47c-.06-.02-.12-.04-.18-.05-5.67-1.84-12.11-2.76-19.32-2.76h-3.68c-16.41 0-28.9 3.45-37.49 10.35-8.43 6.9-12.65 15.79-12.65 26.68 0 5.67 1.46 11.04 4.37 16.1.8 1.35 1.7 2.64 2.68 3.87 3.11 3.89 2.21 11.11-1.57 14.34-1.13.97-2.19 2.03-3.18 3.18-3.68 4.14-5.52 9.05-5.52 14.72 0 3.99.92 7.67 2.76 11.04.2.36.41.72.62 1.07 2.42 3.9 2 10.16-1.32 13.33a33.655 33.655 0 0 0-3.91 4.46c-3.22 4.45-4.83 9.43-4.83 14.95 0 9.05 3.14 16.1 9.43 21.16 6.44 5.21 14.33 7.82 23.69 7.82h48.53c8.28 0 15.79-1.61 22.54-4.83 6.9-3.07 12.34-7.44 16.33-13.11 3.99-5.67 5.98-12.04 5.98-19.09 0-9.81-2.91-17.71-8.74-23.69h.01Zm-69.92-77.73c3.83-3.07 8.66-4.6 14.49-4.6s10.89 1.53 14.72 4.6c3.83 2.91 5.75 7.05 5.75 12.42s-1.92 9.58-5.75 12.65c-3.83 2.91-8.74 4.37-14.72 4.37s-10.66-1.46-14.49-4.37c-3.83-3.07-5.75-7.28-5.75-12.65s1.92-9.51 5.75-12.42Zm43.24 114.07c-2.91 2.45-6.36 3.68-10.35 3.68h-38.64c-3.37 0-6.29-1.15-8.74-3.45-2.45-2.3-3.68-4.98-3.68-8.05 0-3.07 1.23-5.75 3.68-8.05 2.45-2.15 5.37-3.22 8.74-3.22h40.02c3.99 0 7.21 1 9.66 2.99 2.45 2.15 3.68 4.75 3.68 7.82 0 3.22-1.46 5.98-4.37 8.28Zm-594.87-71.51h40.53c7.95 0 14.39 6.44 14.39 14.39v23.91c0 7.95-6.44 14.39-14.39 14.39h-35.35c-3.82 0-7.48 1.52-10.18 4.22l-60.66 60.65c-2.7 2.7-6.36 4.22-10.18 4.22h-29.16c-7.8 0-14.19-6.22-14.39-14.02l-.63-24.41c-.21-8.09 6.29-14.77 14.39-14.77h25.1c3.82 0 7.48-1.52 10.18-4.22l60.15-60.15c2.7-2.7 6.36-4.22 10.18-4.22l.02.01ZM221.71 106.05h40.53c7.95 0 14.39 6.44 14.39 14.39v23.91c0 7.95-6.44 14.39-14.39 14.39h-35.35c-3.82 0-7.48 1.52-10.18 4.22l-60.66 60.66c-2.7 2.7-6.36 4.22-10.18 4.22h-29.16c-7.8 0-14.19-6.22-14.39-14.02l-.63-24.41c-.21-8.09 6.29-14.76 14.39-14.76h25.1c3.82 0 7.48-1.52 10.18-4.22l60.15-60.15c2.7-2.7 6.36-4.22 10.18-4.22l.02-.01Zm120.34 30.8h40.53c7.95 0 14.39 6.44 14.39 14.39v23.91c0 7.95-6.44 14.39-14.39 14.39h-35.35c-3.82 0-7.48 1.52-10.18 4.22l-60.66 60.66c-2.7 2.7-6.36 4.22-10.18 4.22h-35.43c-3.71 0-7.28 1.43-9.96 4l-68.1 65.26c-2.68 2.57-6.25 4-9.96 4h-24.82c-7.95 0-14.39-6.45-14.39-14.39v-24.57c0-7.95 6.44-14.39 14.39-14.39h24.64c3.82 0 7.48-1.52 10.18-4.22l64.67-64.67c2.7-2.7 6.36-4.22 10.18-4.22h33.91c3.82 0 7.48-1.52 10.18-4.22l60.15-60.15c2.7-2.7 6.36-4.22 10.18-4.22h.02Z"/>
</g>
<defs>
<clipPath 
id="a">
<path 
d="M0 0h1520v470H0z"/>
</clipPath>
</defs>
</svg>